<svg xmlns="http://www.w3.org/2000/svg" viewBox="0 0 24 24" width="24" height="24" fill="currentColor">
  <path d="M12 0C5.37 0 0 5.37 0 12c0 5.3 3.438 9.8 8.205 11.387.6.113.82-.258.82-.577 0-.285-.01-1.04-.016-2.04-3.338.724-4.042-1.61-4.042-1.61-.546-1.387-1.333-1.756-1.333-1.756-1.09-.744.083-.729.083-.729 1.205.084 1.84 1.237 1.84 1.237 1.07 1.834 2.807 1.304 3.492.997.108-.775.42-1.305.762-1.605-2.665-.303-5.466-1.332-5.466-5.93 0-1.31.468-2.38 1.236-3.22-.124-.303-.536-1.524.117-3.176 0 0 1.008-.322 3.3 1.23a11.5 11.5 0 0 1 3.003-.404c1.02.005 2.045.138 3.003.404 2.29-1.552 3.297-1.23 3.297-1.23.655 1.652.243 2.873.12 3.176.77.84 1.235 1.91 1.235 3.22 0 4.61-2.805 5.624-5.475 5.92.43.372.823 1.102.823 2.222 0 1.606-.015 2.898-.015 3.293 0 .32.216.694.825.576C20.565 21.795 24 17.298 24 12c0-6.63-5.37-12-12-12z"/>
</svg>
